# xmcd
#
# Track frame offsets: 
#        150
#        22918
#        49604
#        65194
#        86477
#        110520
#        132085
#        154235
#        177076
#        196755
#        215258
#        234804
#        259207
#
# Disc length: 3785 seconds
#
# Revision: 0
# Processed by: cddbd v1.5.2PL0 Copyright (c) Steve Scherf et al.
# Submitted via: ExactAudioCopyFreeDBPlugin 1.0
#
DISCID=a60ec70d
DTITLE=小月 - DTSES天上人间
DYEAR=2008
DGENRE=DTSES
TTITLE0=达古拉
TTITLE1=老情歌
TTITLE2=人间第一情
TTITLE3=我和草原有个约定
TTITLE4=月满西楼
TTITLE5=问候你
TTITLE6=烟花三月
TTITLE7=九九艳阳天
TTITLE8=家乡美
TTITLE9=梦中的唐古拉
TTITLE10=好运来
TTITLE11=你究竟有几个好妹妹
TTITLE12=牵挂
EXTD=
EXTT0=
EXTT1=
EXTT2=
EXTT3=
EXTT4=
EXTT5=
EXTT6=
EXTT7=
EXTT8=
EXTT9=
EXTT10=
EXTT11=
EXTT12=
PLAYORDER=
